<svg xmlns="http://www.w3.org/2000/svg" fill="none" viewBox="0 0 14 14"><path fill="currentColor" fill-rule="evenodd" d="M3.37037 0.36472C5.44416 0.149978 8.2763 0.128825 10.38 0.242202C11.1737 0.284972 11.7702 0.946985 11.7702 1.72336L11.7702 5.33542C11.7702 5.56263 11.6148 5.75683 11.4054 5.84502C11.0743 5.98449 10.7652 6.19207 10.4999 6.46757L6.55853 10.5592C6.32766 10.7989 6.16991 11.0994 6.10379 11.4256L5.78913 12.9777C5.73197 13.2596 5.50683 13.5121 5.21948 13.4985C4.56646 13.4675 3.93983 13.4231 3.37037 13.3642C3.00152 13.3569 2.64755 13.2101 2.38339 12.951C2.36056 12.9286 2.33992 12.9041 2.32178 12.8778C2.15123 12.6303 2.03563 12.2688 1.94849 11.8906C1.86463 11.5266 1.79554 11.0923 1.73979 10.6144H0.801514C0.3873 10.6144 0.0515137 10.2786 0.0515137 9.86438C0.0515137 9.45017 0.3873 9.11438 0.801514 9.11438H1.61343C1.57224 8.39744 1.5517 7.63252 1.55151 6.86969C1.55133 6.10343 1.5717 5.33474 1.61299 4.61438H0.801514C0.3873 4.61438 0.0515137 4.27859 0.0515137 3.86438C0.0515137 3.45017 0.3873 3.11438 0.801514 3.11438H1.73931C1.79485 2.63871 1.86368 2.20608 1.94728 1.84287C2.0347 1.46303 2.15059 1.10079 2.32111 0.852073C2.33942 0.825368 2.36028 0.800505 2.38339 0.777833C2.64755 0.518757 3.00152 0.371956 3.37037 0.36472ZM7.01421 13.2262C6.9809 13.3905 7.03215 13.5606 7.15069 13.6791C7.26923 13.7977 7.43929 13.8489 7.60359 13.8156L9.15568 13.5009C9.24887 13.4821 9.33474 13.437 9.40322 13.371L13.4949 9.42969C14.0919 8.85454 14.1009 7.90138 13.5146 7.31517C12.9284 6.72895 11.9753 6.73787 11.4001 7.33495L7.4588 11.4266C7.39283 11.4951 7.34776 11.5809 7.32887 11.6741L7.01421 13.2262Z" clip-rule="evenodd"></path></svg>