<svg xmlns="http://www.w3.org/2000/svg" fill="none" viewBox="0 0 14 14"><path fill="currentColor" fill-rule="evenodd" d="M12.2681 3.63257L1.73186 3.63257C1.72084 3.69144 1.71205 3.75103 1.70561 3.81126C1.5926 4.86757 1.5 5.92764 1.5 7C1.5 8.07236 1.5926 9.13242 1.70561 10.1887C1.82214 11.2779 2.70378 12.1613 3.79574 12.283C4.85884 12.4015 5.9234 12.5 7 12.5C8.0766 12.5 9.14116 12.4015 10.2043 12.283C11.2962 12.1613 12.1779 11.2779 12.2944 10.1887C12.4074 9.13242 12.5 8.07236 12.5 7C12.5 5.92764 12.4074 4.86757 12.2944 3.81126C12.2879 3.75103 12.2792 3.69144 12.2681 3.63257ZM3.62957 0.226225C4.70557 0.10629 5.83734 0 7 0C8.16266 0 9.29443 0.10629 10.3704 0.226225C12.1584 0.425517 13.5941 1.85954 13.7859 3.65168C13.9004 4.72239 14 5.84605 14 7C14 8.15395 13.9004 9.27761 13.7859 10.3483C13.5941 12.1405 12.1584 13.5745 10.3704 13.7738C9.29443 13.8937 8.16266 14 7 14C5.83734 14 4.70557 13.8937 3.62957 13.7738C1.84163 13.5745 0.405862 12.1405 0.214123 10.3483C0.0995702 9.27761 0 8.15395 0 7C0 5.84604 0.09957 4.72239 0.214123 3.65168C0.405861 1.85954 1.84163 0.425517 3.62957 0.226225ZM6.99992 6.0908C5.43772 4.17528 3.7883 5.53634 3.7666 7.00353C3.7666 9.18777 6.38174 10.9806 6.99992 10.9806C7.61809 10.9806 10.2332 9.18777 10.2332 7.00353C10.2115 5.53634 8.56211 4.17528 6.99992 6.0908Z" clip-rule="evenodd"></path></svg>