<svg xmlns="http://www.w3.org/2000/svg" fill="none" viewBox="0 0 14 14"><path fill="currentColor" fill-rule="evenodd" d="M1.5 0.75C1.5 0.335786 1.16421 0 0.75 0C0.335786 0 0 0.335786 0 0.75V11.1205C0 12.5686 1.12517 13.7766 2.58339 13.8506C3.89041 13.917 5.64638 13.9908 7 13.9908C8.24051 13.9908 9.81809 13.9288 11.0775 13.8675C11.7089 13.8367 12.2636 13.806 12.6605 13.7829C12.8589 13.7714 13.018 13.7618 13.1277 13.755L13.2538 13.7472L13.2867 13.7451L13.2951 13.7446L13.2973 13.7444L13.2979 13.7444L13.2981 13.7444L13.25 12.9962L13.2981 13.7444C13.7115 13.7178 14.025 13.3611 13.9985 12.9478C13.9719 12.5344 13.6152 12.2209 13.2019 12.2475L13.2017 12.2475L13.2013 12.2475L13.1993 12.2476L13.1913 12.2481L13.1595 12.2502L13.0356 12.2579C12.9275 12.2645 12.7701 12.274 12.5734 12.2855C12.1801 12.3083 11.6303 12.3388 11.0045 12.3693C9.74964 12.4304 8.20222 12.4908 7 12.4908C5.68695 12.4908 3.96315 12.4188 2.65945 12.3526C2.01094 12.3196 1.5 11.7817 1.5 11.1205V0.75ZM6.3721 9.8919C6.69972 9.70469 6.9201 9.36661 7.06562 9.10549L12.4314 5.3548L12.4314 5.35481C12.7015 5.66881 13.175 5.70443 13.489 5.43436C13.8031 5.16428 13.8387 4.69074 13.5686 4.37669L13 4.86572C13.5686 4.37669 13.5686 4.37663 13.5685 4.37656L13.5684 4.37636L13.5678 4.37574L13.566 4.37365L13.5595 4.36615L13.5354 4.33835C13.5145 4.31432 13.4841 4.27953 13.4453 4.23552C13.3678 4.14753 13.2565 4.02247 13.1201 3.87266C12.8481 3.57375 12.4735 3.17298 12.0667 2.77026C11.6632 2.3707 11.2131 1.95432 10.792 1.63285C10.582 1.47257 10.3628 1.32311 10.1478 1.21056C9.95008 1.10704 9.67509 0.990723 9.375 0.990723C8.85052 0.990723 8.51291 1.37178 8.35094 1.58829C8.15701 1.84753 7.98759 2.18162 7.83775 2.5266C7.53511 3.2234 7.2388 4.14105 6.95741 5.03237L6.85773 5.3487L6.85773 5.34872C6.60614 6.1479 6.36439 6.91583 6.12628 7.53983C5.99166 7.89263 5.86763 8.17381 5.75534 8.37531C5.73184 8.41748 5.71083 8.45246 5.69252 8.48127L5.67419 8.47338C5.47917 8.3881 5.23037 8.23801 4.96689 8.05593C4.70965 7.87816 4.46507 7.68861 4.28294 7.5417C4.19246 7.46871 4.11872 7.40733 4.06812 7.36464C4.04284 7.34332 4.02342 7.32673 4.01064 7.31575L3.99658 7.30363L3.9935 7.30095L3.99314 7.30065L3.99304 7.30055L3.99298 7.3005C3.6809 7.0283 3.20724 7.06055 2.93493 7.37258C2.66257 7.68466 2.69477 8.15844 3.00686 8.4308L3.5 7.86572C3.00686 8.4308 3.00693 8.43086 3.00701 8.43093L3.00721 8.4311L3.00773 8.43156L3.00932 8.43294L3.01459 8.43752L3.03324 8.45359C3.04917 8.46728 3.072 8.48677 3.1009 8.51115C3.15864 8.55987 3.24094 8.62836 3.34119 8.70922C3.54052 8.87 3.81619 9.08405 4.11412 9.28994C4.40581 9.49151 4.7471 9.70512 5.0732 9.84772C5.23533 9.91862 5.4248 9.98596 5.62234 10.0152C5.81152 10.0432 6.09683 10.0492 6.3721 9.8919ZM7.06562 9.10549L12.4314 5.35475L12.4312 5.35457L12.4301 5.35326L12.425 5.34736L12.4038 5.3229C12.3848 5.30116 12.3566 5.26881 12.3201 5.22737C12.247 5.14446 12.141 5.02538 12.0107 4.88222C11.7495 4.59519 11.3937 4.21471 11.0114 3.83618C10.6259 3.4545 10.2283 3.08962 9.88183 2.82516C9.73117 2.71015 9.60253 2.6237 9.49835 2.5647C9.41838 2.68915 9.3225 2.8734 9.21358 3.12417C8.94753 3.73672 8.67389 4.57779 8.38782 5.48395L8.2886 5.79891C8.03959 6.59022 7.78306 7.40543 7.52772 8.07459C7.38295 8.45399 7.22915 8.81204 7.06562 9.10549ZM9.61413 2.41581C9.61415 2.41639 9.61 2.42066 9.60165 2.4269C9.60995 2.41835 9.61412 2.41523 9.61413 2.41581Z" clip-rule="evenodd"></path></svg>