<svg xmlns="http://www.w3.org/2000/svg" fill="none" viewBox="0 0 14 14"><path fill="currentColor" fill-rule="evenodd" d="M1.5 0.75C1.5 0.335786 1.16421 0 0.75 0C0.335786 0 0 0.335786 0 0.75V9.76213V9.76862V11.25C0 12.7688 1.23122 14 2.75 14H13.25C13.6642 14 14 13.6642 14 13.25C14 12.8358 13.6642 12.5 13.25 12.5H2.75C2.05964 12.5 1.5 11.9404 1.5 11.25V10.0525L3.75652 7.53457C4.07908 7.68168 4.44878 7.75 4.84509 7.75C5.37845 7.75 5.86362 7.62626 6.25053 7.35324L7.41325 8.2651C7.37767 8.44764 7.36053 8.63943 7.36053 8.83789C7.36053 9.48993 7.54547 10.0699 7.96198 10.4864C8.3785 10.903 8.9585 11.0879 9.61053 11.0879C10.2626 11.0879 10.8426 10.903 11.2591 10.4864C11.6756 10.0699 11.8605 9.48993 11.8605 8.83789C11.8605 8.24559 11.7079 7.71273 11.3678 7.30786L11.855 4.73059C12.3617 4.67338 12.8093 4.48777 13.1486 4.14855C13.5651 3.73204 13.75 3.15203 13.75 2.5C13.75 1.84797 13.5651 1.26796 13.1486 0.851447C12.732 0.434932 12.152 0.25 11.5 0.25C10.848 0.25 10.268 0.434932 9.85145 0.851447C9.43493 1.26796 9.25 1.84797 9.25 2.5C9.25 3.15203 9.43493 3.73204 9.85145 4.14855C10.0037 4.3008 10.1778 4.4221 10.3692 4.51474L9.97347 6.6082C9.8555 6.59456 9.73432 6.58789 9.61053 6.58789C9.07866 6.58789 8.59471 6.71094 8.20833 6.98237L7.04319 6.06862C7.07822 5.88733 7.09509 5.69695 7.09509 5.5C7.09509 4.84797 6.91016 4.26796 6.49365 3.85145C6.07713 3.43493 5.49713 3.25 4.84509 3.25C4.19306 3.25 3.61305 3.43493 3.19654 3.85145C2.78002 4.26796 2.59509 4.84797 2.59509 5.5C2.59509 5.82857 2.64205 6.13885 2.74194 6.41913L1.5 7.80495V0.75Z" clip-rule="evenodd"></path></svg>