<svg xmlns="http://www.w3.org/2000/svg" fill="none" viewBox="0 0 14 14"><path fill="currentColor" fill-rule="evenodd" d="M6.99967 0.125C6.02721 0.125 5.09458 0.511308 4.40695 1.19894C3.71932 1.88657 3.33301 2.81921 3.33301 3.79167V4.91587C2.29091 5.41598 1.52694 6.42662 1.39062 7.62928C1.33263 8.14078 1.2915 8.6688 1.2915 9.20835C1.2915 9.74791 1.33263 10.2759 1.39062 10.7874C1.58124 12.4691 2.99908 13.7754 4.68852 13.8353C5.42664 13.8615 6.18414 13.875 6.99984 13.875C7.81553 13.875 8.57303 13.8615 9.31116 13.8353C11.0006 13.7754 12.4184 12.4691 12.6091 10.7874C12.667 10.2759 12.7082 9.74791 12.7082 9.20835C12.7082 8.6688 12.667 8.14078 12.6091 7.62928C12.4727 6.42649 11.7086 5.41577 10.6663 4.91572V3.79167C10.6663 2.81921 10.28 1.88657 9.5924 1.19894C8.90477 0.511308 7.97214 0.125 6.99967 0.125ZM9.16634 4.57643V3.79167C9.16634 3.21703 8.93807 2.66593 8.53174 2.2596C8.12541 1.85327 7.57431 1.625 6.99967 1.625C6.42504 1.625 5.87394 1.85327 5.46761 2.2596C5.06128 2.66593 4.83301 3.21703 4.83301 3.79167V4.57644C5.52557 4.5535 6.23727 4.54169 6.99984 4.54169C7.76228 4.54169 8.47388 4.5535 9.16634 4.57643ZM6.99976 7.87506C7.41397 7.87506 7.74976 8.21085 7.74976 8.62506V9.625C7.74976 10.0392 7.41397 10.375 6.99976 10.375C6.58554 10.375 6.24976 10.0392 6.24976 9.625V8.62506C6.24976 8.21085 6.58554 7.87506 6.99976 7.87506Z" clip-rule="evenodd"></path></svg>