<svg xmlns="http://www.w3.org/2000/svg" fill="none" viewBox="0 0 14 14"><path fill="currentColor" fill-rule="evenodd" d="M8.73161 1.66871C8.0959 0.138587 6.00111 0.230093 5.39142 1.70594C5.11093 2.38492 4.87113 3.07042 4.61793 3.90346C3.67724 3.88978 2.90486 3.91112 2.12752 3.98295C0.538501 4.12979 -0.13658 6.09537 1.13208 7.138C1.69096 7.5973 2.28286 8.01078 3.01723 8.46886C3.01904 8.46999 3.02042 8.47149 3.02137 8.47412C3.02231 8.47673 3.02214 8.47851 3.02157 8.4802C2.67973 9.49932 2.45252 10.3331 2.28175 11.1936C1.97046 12.7623 3.6612 13.9856 5.03856 13.0901C5.70615 12.6561 6.32074 12.177 7.02114 11.5528C7.73126 12.2051 8.35369 12.7005 9.03485 13.141C10.4216 14.0377 12.0668 12.7778 11.7599 11.2357C11.5836 10.3498 11.3574 9.50825 11.0261 8.48098C11.0256 8.47955 11.0255 8.47807 11.0263 8.47573C11.0272 8.47334 11.0285 8.47187 11.0303 8.47072C11.7431 8.02341 12.3195 7.61964 12.8596 7.17971C14.1526 6.12665 13.4464 4.14381 11.8495 4.00031C11.0954 3.93254 10.3505 3.9063 9.4563 3.90808C9.24091 3.05476 9.01671 2.35494 8.73161 1.66871Z" clip-rule="evenodd"></path></svg>