<svg xmlns="http://www.w3.org/2000/svg" fill="none" viewBox="0 0 14 14"><path fill="currentColor" fill-rule="evenodd" d="M0.631169 1.12946C1.95671 0.43609 3.43365 0.0826605 4.92948 0.100891C6.4253 0.119121 7.89319 0.508441 9.20144 1.23392C9.36227 1.32311 9.46116 1.49339 9.45892 1.67729L9.45643 1.88084C9.4526 2.19396 9.16512 2.42583 8.85502 2.38235C7.53798 2.19769 6.19402 2.26973 4.8982 2.59837C4.27381 2.75672 3.78689 3.2453 3.63066 3.87023L3.00065 6.39026L3.0003 6.39168C2.86197 6.9417 2.78709 7.50299 2.77533 8.06481C2.76603 8.50885 2.25894 8.78407 1.96011 8.45551C1.68324 8.15109 1.4359 7.81878 1.22248 7.46271C0.626139 6.46774 0.31827 5.32653 0.333288 4.16664L0.333293 4.16623L0.362954 1.56681C0.365054 1.38277 0.468087 1.21477 0.631169 1.12946ZM9.62515 3.80421C8.17416 3.44026 6.65552 3.44226 5.20549 3.81001C5.02709 3.85525 4.88798 3.99485 4.84334 4.1734L4.21285 6.69537L4.21275 6.69577C3.92968 7.82069 3.96505 9.00217 4.31492 10.1081C4.66459 11.2135 5.31461 12.1999 6.1924 12.9572C6.48401 13.2132 6.83205 13.3967 7.20811 13.4926C7.58504 13.5887 7.97938 13.5941 8.35881 13.5083L8.36086 13.5079C9.49058 13.2475 10.5259 12.6787 11.3514 11.8648C12.1766 11.0511 12.7599 10.0245 13.0364 8.89908L13.0367 8.89776L13.6667 6.38614C13.7115 6.20776 13.6547 6.01921 13.5189 5.89521C12.4141 4.88664 11.0761 4.16815 9.62515 3.80421ZM6.97835 7.90954C7.04651 7.93478 7.08087 7.9674 7.0944 7.98748C7.28724 8.27377 7.67565 8.34952 7.96194 8.15669C8.24823 7.96385 8.32398 7.57544 8.13114 7.28915C7.93851 7.00317 7.66464 6.83071 7.41236 6.7373C7.16456 6.64556 6.89037 6.61212 6.64517 6.65029C6.3041 6.70338 6.07064 7.02291 6.12374 7.36398C6.17683 7.70505 6.49636 7.9385 6.83743 7.88541L6.83739 7.88542C6.83788 7.88536 6.84195 7.88486 6.84966 7.88479C6.85843 7.8847 6.87015 7.88518 6.88433 7.88682C6.91333 7.89017 6.94612 7.89761 6.97835 7.90954ZM10.1202 8.719C10.0082 8.71021 9.93166 8.72658 9.89693 8.7421C9.5818 8.88295 9.21215 8.74168 9.0713 8.42655C8.93044 8.11141 9.07172 7.74176 9.38685 7.60091C9.67103 7.47389 9.97312 7.45362 10.218 7.47284C10.4633 7.4921 10.7115 7.55569 10.9107 7.65535C11.2194 7.80984 11.3444 8.1853 11.1899 8.49398C11.0354 8.80266 10.6599 8.92766 10.3513 8.77318C10.3186 8.75682 10.2317 8.72776 10.1202 8.719Z" clip-rule="evenodd"></path></svg>