<svg xmlns="http://www.w3.org/2000/svg" fill="none" viewBox="0 0 14 14"><path fill="currentColor" fill-rule="evenodd" d="M10.1533 0.997908C9.32139 0.536796 8.46587 0.34215 7.62553 0.458924C6.78493 0.575735 6.0092 0.997262 5.3251 1.68137C4.68332 2.32314 4.27212 3.04591 4.12742 3.82878C3.99815 4.52813 4.0877 5.24248 4.37228 5.94724C3.84926 6.41598 3.31318 6.90679 2.78871 7.43126C2.1974 8.02257 1.64888 8.62863 1.12655 9.21409C0.37754 10.0536 0.171926 11.4111 0.936473 12.3688C1.03715 12.4949 1.1462 12.6196 1.26583 12.7392C1.38545 12.8588 1.51013 12.9679 1.63623 13.0686L1.94797 12.6781L1.63624 13.0686C2.59389 13.8331 3.95139 13.6275 4.79094 12.8785C5.37641 12.3562 5.98246 11.8076 6.57377 11.2163C7.09825 10.6918 7.58906 10.1558 8.0578 9.63274C8.76255 9.91732 9.4769 10.0069 10.1763 9.8776C10.9591 9.7329 11.6819 9.3217 12.3237 8.67993C12.9855 8.01805 13.4019 7.27019 13.534 6.45991C13.6661 5.64906 13.5061 4.82103 13.0928 4.01247C12.9043 3.64374 12.4217 3.58785 12.1453 3.86422C11.8882 4.12137 11.6334 4.39207 11.3959 4.64437L11.3959 4.64439L11.3958 4.64451C11.2465 4.80302 11.1042 4.95427 10.9724 5.09032C10.6117 5.4626 10.3008 5.75325 10.0095 5.94334C9.72344 6.13003 9.49897 6.19164 9.29867 6.17107C9.09698 6.15035 8.8279 6.03677 8.47423 5.6831C8.12056 5.32942 8.00697 5.06034 7.98626 4.85866C7.96568 4.65836 8.02729 4.43389 8.21399 4.14783C8.40408 3.85656 8.69473 3.54564 9.067 3.18497C9.20307 3.05314 9.35435 2.91074 9.51289 2.7615L9.51295 2.76145L9.51296 2.76144C9.76526 2.52395 10.036 2.26914 10.2931 2.01199C10.5817 1.72339 10.5416 1.21313 10.1533 0.997908Z" clip-rule="evenodd"></path></svg>